<svg xmlns="http://www.w3.org/2000/svg" width="500" height="500" viewBox="0 0 500 500" version="1.1"><path d="M 151.519 51.598 C 146.489 53.439, 141.295 58.338, 138.900 63.500 C 137.114 67.350, 137.043 74.320, 137.022 248.790 C 137.001 425.374, 137.050 430.176, 138.912 433.790 C 139.964 435.830, 142.327 438.940, 144.162 440.699 C 151.109 447.358, 145.100 447.002, 250.218 446.978 C 340.905 446.957, 345.693 446.867, 349.500 445.100 C 351.700 444.079, 354.940 441.727, 356.699 439.872 C 363.500 432.704, 363.001 447.823, 362.994 249.282 C 362.991 123.889, 362.663 68.326, 361.911 65.619 C 360.478 60.458, 352.774 52.823, 347.384 51.222 C 344.261 50.295, 320.621 50.017, 249.384 50.070 C 169.773 50.130, 154.895 50.362, 151.519 51.598 M 153.071 59.743 C 151.185 60.710, 148.710 62.770, 147.571 64.323 C 145.522 67.116, 145.497 68.001, 145.233 148.573 L 144.966 230 147.800 230 C 150.380 230, 150.793 229.483, 152.397 224.250 C 153.366 221.088, 156.124 214.408, 158.526 209.406 C 160.927 204.405, 163.432 198.105, 164.092 195.406 C 164.752 192.708, 165.918 189.254, 166.682 187.730 C 168.438 184.231, 174.497 179.814, 181.555 176.889 L 187.025 174.621 183.817 171.311 C 182.052 169.490, 179.908 167.997, 179.054 167.993 C 175.285 167.977, 166.623 159.331, 165.369 154.334 C 164.298 150.068, 165.732 147, 168.797 147 C 174.124 147, 178.915 152.309, 182.485 162.166 C 184.255 167.056, 187.986 171.900, 205.494 192.041 C 222.094 211.137, 227.268 216.467, 230.662 217.969 C 235.585 220.146, 244.493 228.120, 246.639 232.268 C 248.926 236.692, 247.633 239, 242.867 239 C 240.668 239, 238.099 238.588, 237.159 238.085 C 235.997 237.463, 232.734 237.956, 226.983 239.622 C 215.013 243.089, 200.465 245.286, 194.500 244.527 C 191.750 244.177, 184.616 242.772, 178.647 241.405 C 164.715 238.214, 154.856 236.993, 148.809 237.709 L 144 238.279 144 242.614 L 144 246.950 147.250 246.225 C 154.845 244.531, 168.359 245.537, 183.437 248.920 C 196.423 251.834, 199.557 252.200, 207.437 251.726 C 216.282 251.194, 226.342 249.062, 240.500 244.721 C 246.615 242.846, 249.965 242.570, 267 242.537 C 289.928 242.493, 294.883 243.343, 320.500 251.706 C 335.086 256.468, 338.906 257.329, 347.403 257.769 L 357.306 258.282 356.653 255.016 C 356.294 253.220, 356 251.326, 356 250.808 C 356 250.289, 354.987 250.180, 353.750 250.566 C 351.570 251.244, 351.555 251.204, 353.271 249.281 C 354.937 247.414, 355.039 242.078, 355.011 158.593 C 354.977 61.171, 355.247 65.452, 348.863 60.899 L 345.500 58.500 251 58.243 C 162.535 58.003, 156.281 58.099, 153.071 59.743 M 313.365 156.559 C 313.844 159.441, 313.630 159.684, 309.683 160.740 C 303.985 162.264, 297.937 166.843, 292.538 173.722 C 287.713 179.869, 282 189.879, 282 192.184 C 282 194.043, 296.520 209, 298.325 209 C 299.098 209, 300.916 209.933, 302.365 211.073 C 304.873 213.045, 305 213.055, 305 211.268 C 305 210.236, 303.650 207.263, 302 204.661 C 298.425 199.023, 298.358 198.414, 301.148 196.921 C 302.776 196.050, 305.980 196.081, 314.398 197.051 C 320.504 197.755, 326.440 198.668, 327.588 199.079 C 329.180 199.650, 331.154 203.762, 335.904 216.403 C 339.329 225.519, 341.900 233.353, 341.617 233.811 C 341.081 234.678, 342.362 245.009, 343.438 248.500 C 343.777 249.600, 343.160 248.588, 342.068 246.250 C 340.487 242.867, 339.557 242, 337.511 242 C 336.097 242, 328.316 239.863, 320.220 237.250 C 308.537 233.480, 304.998 231.909, 303.065 229.635 C 300.761 226.925, 300.589 226.878, 299.892 228.762 C 299.171 230.711, 299 230.718, 291.894 229.105 C 285.254 227.598, 284.561 227.201, 283.795 224.478 C 282.712 220.624, 283.779 212.428, 285.557 210.953 C 288.156 208.796, 292.447 211.764, 294.309 217.007 C 296.171 222.249, 305.585 232, 308.785 232 C 310.875 232, 314 229.065, 314 227.101 C 314 225.379, 308.832 218.099, 305.095 214.558 C 303.387 212.940, 300.080 210.660, 297.745 209.491 C 294.672 207.954, 287.626 200.757, 272.232 183.433 C 260.534 170.270, 250.533 158.488, 250.006 157.250 C 248.577 153.888, 246.370 154.510, 242.912 159.250 C 236.756 167.690, 234.043 174.433, 233.064 183.734 C 232.489 189.199, 230.773 196.412, 228.508 202.888 C 226.510 208.601, 225.241 213.633, 225.688 214.070 C 228.412 216.737, 237.942 220.662, 240.707 220.256 C 244.888 219.643, 248 221.482, 248 224.567 C 248 225.939, 247.354 227.311, 246.565 227.614 C 245.367 228.073, 245.444 228.681, 247.028 231.287 L 248.927 234.410 264.214 234.559 C 282.225 234.736, 292.343 236.580, 313.505 243.543 C 334.858 250.569, 345.926 252.079, 352.250 248.829 C 356.018 246.892, 352.402 235.532, 347.001 232.342 C 344.537 230.886, 342.359 225.969, 329.953 193.842 C 316.404 158.759, 312.136 149.166, 313.365 156.559 M 243.018 167.698 C 240.342 175.038, 239.886 177.504, 240.273 182.545 C 240.788 189.255, 243.052 194.577, 245.739 195.393 C 246.708 195.686, 251.329 196.393, 256.009 196.962 C 262.716 197.777, 265.967 197.693, 271.359 196.565 C 275.121 195.778, 278.383 194.951, 278.606 194.727 C 279.269 194.064, 249.153 159.528, 247.625 159.198 C 246.681 158.995, 245.185 161.755, 243.018 167.698 M 307.517 167.150 C 301.200 173.466, 301 173.823, 301 178.761 C 301 183.428, 301.314 184.115, 304.750 186.962 C 312.600 193.467, 327 198.614, 327 194.916 C 327 193.155, 315.957 162.586, 314.953 161.567 C 314.388 160.993, 311.521 163.146, 307.517 167.150 M 304 176.011 C 304 177.271, 307.644 180, 309.329 180 C 310.248 180, 311 180.675, 311 181.500 C 311 182.325, 310.550 183, 310 183 C 308.152 183, 308.978 184.940, 311.541 186.619 C 314.497 188.556, 318.145 187.466, 319.942 184.109 C 320.796 182.512, 320.562 181.613, 318.753 179.556 C 317.012 177.574, 315.080 176.803, 310.250 176.161 C 306.813 175.705, 304 175.637, 304 176.011 M 182 181.351 C 173.425 188.133, 172.658 189.272, 173.232 194.365 C 173.505 196.792, 174.578 200.463, 175.615 202.523 C 177.374 206.018, 178.355 206.592, 190.336 211.134 L 203.172 216 210.586 213.846 C 214.664 212.661, 218 211.330, 218 210.888 C 218 209.878, 189.041 177, 188.153 177.001 C 187.794 177.001, 185.025 178.959, 182 181.351 M 244.158 180.295 C 244.710 181.326, 246.700 182.812, 248.580 183.598 C 252.363 185.179, 252.905 186.434, 250.250 187.466 C 248.706 188.067, 248.830 188.432, 251.306 190.573 C 254.557 193.385, 256.035 193.551, 259.928 191.537 C 264.689 189.075, 264.773 185.819, 260.184 181.667 C 258.836 180.447, 255.731 179.621, 250.669 179.138 C 243.524 178.455, 243.204 178.512, 244.158 180.295 M 179 192.152 C 179 193.484, 182.142 195.998, 184.570 196.607 C 186.895 197.190, 188.079 200, 186 200 C 183.805 200, 185.183 203.043, 188.050 204.526 C 191.316 206.215, 194.333 205.789, 197.250 203.227 C 199.632 201.135, 199.447 198.632, 196.673 195.407 C 194.643 193.046, 193.370 192.622, 186.673 192.074 C 182.453 191.729, 179 191.764, 179 192.152 M 273.708 200.085 C 268.686 202.677, 266.716 203.103, 258.875 203.287 C 250.037 203.495, 249.766 203.574, 246.916 206.766 C 245.312 208.562, 244 210.417, 244 210.889 C 244 211.360, 246.235 211.960, 248.967 212.223 C 256.192 212.917, 257.363 214.249, 256.661 220.971 L 256.084 226.500 266.422 226.511 L 276.760 226.523 276.285 216.511 C 275.773 205.725, 277.210 198.776, 280.067 198.226 C 281.031 198.040, 283.483 200.442, 286.434 204.462 C 289.074 208.058, 291.433 211, 291.676 211 C 292.346 211, 291.075 209.062, 286.265 202.750 C 283.855 199.588, 281.347 197.022, 280.692 197.048 C 280.036 197.075, 276.894 198.441, 273.708 200.085 M 211.794 219.285 C 204.430 223.083, 203.888 223.209, 199.601 222.130 C 197.133 221.508, 192.104 221, 188.426 221 C 181.861 221, 181.656 221.081, 177.368 225.368 C 170.741 231.996, 170.345 231.593, 186.912 235.072 C 194.517 236.670, 199.100 237.100, 203.912 236.668 C 209.865 236.133, 210.799 235.736, 213.600 232.545 C 215.305 230.603, 218.087 226.428, 219.783 223.267 C 222.828 217.593, 222.880 217.554, 223.868 220.153 C 224.419 221.602, 225.152 224.297, 225.498 226.143 C 226.059 229.142, 225.792 229.697, 222.994 231.347 C 219.045 233.676, 219.541 234.242, 224.363 232.910 C 227.805 231.960, 228.279 232.086, 230.129 234.437 C 231.238 235.847, 232.616 237, 233.191 237 C 233.767 237, 232.823 235.553, 231.093 233.784 C 228.376 231.004, 225 223.077, 225 219.473 C 225 218.056, 221.697 214.940, 220.421 215.155 C 219.915 215.240, 216.032 217.099, 211.794 219.285 M 309.485 270.130 C 297.522 276.526, 291.941 283.190, 283.809 300.792 C 278.562 312.150, 269 340.908, 269 345.332 C 269 350.395, 273.517 354.005, 279.827 353.985 C 289.082 353.956, 292.741 349.817, 295.378 336.394 C 296.334 331.530, 297.242 327.425, 297.396 327.271 C 297.549 327.117, 299.138 327.721, 300.925 328.612 C 305.850 331.069, 314.001 330.081, 319.254 326.389 C 328.652 319.784, 333.805 308.791, 334.717 293.404 C 335.324 283.174, 334.290 278.687, 330.211 273.839 C 325.175 267.854, 316.610 266.322, 309.485 270.130 M 201.500 270.707 C 194.827 272.294, 184.313 276.346, 183.250 277.741 C 182.563 278.644, 182 280.924, 182 282.809 C 182 284.694, 180.141 290.345, 177.869 295.368 C 170.156 312.421, 166.949 323.668, 165.494 338.768 C 164.590 348.150, 165.863 350.376, 173.013 351.909 C 185.124 354.507, 199.023 352.308, 204.588 346.915 C 207.969 343.637, 208.928 340.691, 207 339.500 C 206.450 339.160, 206 337.784, 206 336.441 C 206 333.656, 206.069 333.673, 196 333.903 C 185.656 334.139, 185.154 333.635, 188.441 326.312 L 191.103 320.379 196.967 319.168 C 201.609 318.209, 203.471 317.228, 205.901 314.460 C 208.956 310.980, 210.794 306.461, 209.629 305.296 C 209.293 304.959, 206.050 304.780, 202.424 304.898 C 195.964 305.107, 195.844 305.064, 196.530 302.806 C 197.911 298.253, 201.525 292.780, 203.989 291.507 C 205.370 290.793, 208.525 289.672, 211 289.015 C 217.793 287.213, 223 281.437, 223 275.705 C 223 271.348, 220.182 269.988, 211.421 270.116 C 207.065 270.180, 202.600 270.446, 201.500 270.707 M 251.283 273.216 C 239.921 277.390, 231.156 285.724, 223.991 299.168 C 215.451 315.191, 214.780 336.324, 222.540 344.912 C 230.699 353.944, 249.131 354.240, 260.559 345.523 C 263.906 342.970, 265.025 339.752, 263 338.500 C 262.450 338.160, 262 336.349, 262 334.476 C 262 328.710, 257.857 327.625, 249.334 331.157 C 244.367 333.216, 244.009 333.236, 241.520 331.605 C 240.085 330.665, 238.457 328.702, 237.902 327.243 C 234.325 317.835, 247.658 295.033, 256.750 295.007 C 258.749 295.001, 259 295.499, 259 299.477 C 259 303.108, 259.457 304.253, 261.417 305.538 C 266.680 308.986, 276.600 303.772, 279.082 296.252 C 281.019 290.383, 280.601 282.709, 278.127 278.706 C 273.737 271.603, 262.132 269.229, 251.283 273.216 M 309.856 295.750 C 302.545 312.504, 301.152 316, 301.788 315.996 C 302.180 315.994, 303.993 315.082, 305.818 313.970 C 309.943 311.455, 313.026 304.802, 313.746 296.863 C 314.412 289.523, 312.778 289.055, 309.856 295.750 M 149 386.500 L 149 395 152 395 C 154 395, 155 394.500, 155 393.500 C 155 392.675, 154.325 392, 153.500 392 C 152.667 392, 152 391.111, 152 390 C 152 388.900, 152.450 388, 153 388 C 153.550 388, 154 387.325, 154 386.500 C 154 385.675, 153.550 385, 153 385 C 152.450 385, 152 384.100, 152 383 C 152 381.889, 152.667 381, 153.500 381 C 154.325 381, 155 380.325, 155 379.500 C 155 378.500, 154 378, 152 378 L 149 378 149 386.500 M 157.200 379.200 C 155.960 380.440, 155.535 390.624, 156.607 393.418 C 156.967 394.356, 158.391 395, 160.107 395 C 162.869 395, 163 394.796, 163 390.500 C 163 386.667, 162.704 386, 161 386 C 159.457 386, 159.026 385.372, 159.116 383.250 C 159.187 381.558, 159.408 381.173, 159.689 382.250 C 160.235 384.337, 163 384.614, 163 382.582 C 163 378.388, 159.849 376.551, 157.200 379.200 M 164.439 380.250 C 164.809 381.488, 165.373 385.313, 165.693 388.750 C 166.446 396.850, 168.491 397.130, 169.346 389.250 C 169.690 386.087, 170.255 382.262, 170.602 380.750 C 171.364 377.432, 169.744 377.092, 168.220 380.250 L 167.135 382.500 167.068 380.250 C 167.026 378.872, 166.373 378, 165.383 378 C 164.174 378, 163.936 378.567, 164.439 380.250 M 176.607 379.582 C 176.273 380.452, 176 383.565, 176 386.500 C 176 389.435, 176.273 392.548, 176.607 393.418 C 177.846 396.648, 183 394.538, 183 390.800 C 183 388.487, 180.291 388.446, 179.689 390.750 C 179.438 391.712, 179.232 389.800, 179.232 386.500 C 179.232 383.200, 179.438 381.288, 179.689 382.250 C 180.291 384.554, 183 384.513, 183 382.200 C 183 378.462, 177.846 376.352, 176.607 379.582 M 185.980 378.250 C 185.969 378.387, 185.356 382.212, 184.619 386.750 C 183.488 393.700, 183.492 395, 184.639 395 C 185.387 395, 186 394.325, 186 393.500 C 186 392.675, 186.675 392, 187.500 392 C 188.325 392, 189 392.675, 189 393.500 C 189 394.325, 189.705 395, 190.567 395 C 191.588 395, 191.957 394.389, 191.624 393.250 C 191.344 392.288, 190.825 389.250, 190.473 386.500 C 189.564 379.414, 189.059 378, 187.433 378 C 186.645 378, 185.991 378.113, 185.980 378.250 M 193 386.500 C 193 391.500, 193.412 395, 194 395 C 194.550 395, 195.054 393.087, 195.120 390.750 L 195.240 386.500 196.262 390.750 C 196.842 393.162, 197.872 395, 198.642 395 C 199.679 395, 200 392.994, 200 386.500 C 200 381.500, 199.588 378, 199 378 C 198.450 378, 197.964 379.913, 197.921 382.250 L 197.842 386.500 196.338 382.250 C 195.510 379.913, 194.421 378, 193.917 378 C 193.412 378, 193 381.825, 193 386.500 M 202.419 379.349 C 202.135 380.091, 202.036 383.804, 202.201 387.599 C 202.473 393.886, 202.700 394.528, 204.748 394.819 C 206.410 395.055, 207.258 394.451, 207.998 392.504 C 209.270 389.159, 209.282 383.872, 208.025 380.565 C 206.971 377.794, 203.320 377.002, 202.419 379.349 M 210 386.500 L 210 395 213 395 C 216.140 395, 217.078 393.351, 214.500 392.362 C 212.840 391.725, 212.413 388, 214 388 C 214.550 388, 215 387.325, 215 386.500 C 215 385.675, 214.550 385, 214 385 C 212.413 385, 212.840 381.275, 214.500 380.638 C 217.078 379.649, 216.140 378, 213 378 L 210 378 210 386.500 M 221 386.500 C 221 391.500, 221.412 395, 222 395 C 222.550 395, 223 393.455, 223 391.567 C 223 389.013, 223.512 387.972, 225 387.500 C 226.100 387.151, 227.071 386.108, 227.158 385.183 C 227.632 380.148, 226.340 378.047, 222.750 378.015 C 221.219 378.002, 221 379.066, 221 386.500 M 229.594 383.250 C 229.229 386.137, 228.671 389.962, 228.354 391.750 C 227.900 394.310, 228.119 395, 229.389 395 C 230.275 395, 231 394.325, 231 393.500 C 231 391.507, 231.990 391.603, 233.558 393.748 C 235.762 396.763, 236.179 394.477, 234.954 386.098 C 233.988 379.491, 233.447 378, 232.014 378 C 230.646 378, 230.111 379.162, 229.594 383.250 M 237 386.500 C 237 394.213, 237.178 395, 238.918 395 C 243.474 395, 244 394.121, 244 386.500 C 244 378.879, 243.474 378, 238.918 378 C 237.178 378, 237 378.787, 237 386.500 M 246 386.500 C 246 394.868, 246.038 395, 248.465 395 C 251.610 395, 253 392.394, 253 386.500 C 253 380.606, 251.610 378, 248.465 378 C 246.038 378, 246 378.132, 246 386.500 M 254 386.500 L 254 395 257 395 C 258.650 395, 260 394.550, 260 394 C 260 393.450, 259.325 393, 258.500 393 C 257.300 393, 257 391.500, 257 385.500 C 257 379.500, 256.700 378, 255.500 378 C 254.284 378, 254 379.611, 254 386.500 M 261 386.500 L 261 395 264 395 C 266 395, 267 394.500, 267 393.500 C 267 392.675, 266.325 392, 265.500 392 C 264.667 392, 264 391.111, 264 390 C 264 388.900, 264.450 388, 265 388 C 265.550 388, 266 387.325, 266 386.500 C 266 385.675, 265.550 385, 265 385 C 264.450 385, 264 384.100, 264 383 C 264 381.889, 264.667 381, 265.500 381 C 266.325 381, 267 380.325, 267 379.500 C 267 378.500, 266 378, 264 378 L 261 378 261 386.500 M 268 386.500 C 268 393.389, 268.284 395, 269.500 395 C 270.543 395, 271.040 393.858, 271.132 391.250 L 271.263 387.500 271.882 390.921 C 273.041 397.336, 274.705 395.504, 274.729 387.784 C 274.754 379.794, 273.956 378, 270.378 378 C 268.061 378, 268 378.217, 268 386.500 M 277.004 379.993 C 276.069 381.739, 276.333 382.893, 278.524 386.632 C 279.983 389.121, 280.850 391.459, 280.451 391.829 C 280.052 392.198, 279.525 391.938, 279.280 391.250 C 278.610 389.373, 275.800 389.729, 276.177 391.643 C 276.612 393.854, 279.351 395.463, 281.364 394.691 C 283.647 393.815, 283.423 389.420, 280.886 385.315 C 279.723 383.434, 279.110 381.581, 279.523 381.197 C 279.936 380.814, 280.475 381.063, 280.720 381.750 C 281.490 383.904, 283.155 383.111, 282.820 380.750 C 282.383 377.676, 278.514 377.172, 277.004 379.993 M 289.980 378.250 C 289.969 378.387, 289.356 382.212, 288.619 386.750 C 287.488 393.700, 287.492 395, 288.639 395 C 289.387 395, 290 394.325, 290 393.500 C 290 392.675, 290.675 392, 291.500 392 C 292.325 392, 293 392.675, 293 393.500 C 293 394.325, 293.705 395, 294.567 395 C 295.588 395, 295.957 394.389, 295.624 393.250 C 295.344 392.288, 294.825 389.250, 294.473 386.500 C 293.564 379.414, 293.059 378, 291.433 378 C 290.645 378, 289.991 378.113, 289.980 378.250 M 296 379.500 C 296 380.325, 296.450 381, 297 381 C 297.571 381, 298 384, 298 388 C 298 393.556, 298.310 395, 299.500 395 C 300.690 395, 301 393.556, 301 388 C 301 384, 301.429 381, 302 381 C 302.550 381, 303 380.325, 303 379.500 C 303 378.452, 301.944 378, 299.500 378 C 297.056 378, 296 378.452, 296 379.500 M 304 386.500 C 304 393.230, 304.300 395, 305.440 395 C 306.367 395, 307.019 393.665, 307.272 391.250 L 307.664 387.500 307.832 391.250 C 307.948 393.842, 308.463 395, 309.500 395 C 310.716 395, 311 393.389, 311 386.500 C 311 379.770, 310.700 378, 309.560 378 C 308.633 378, 307.981 379.335, 307.728 381.750 L 307.336 385.500 307.168 381.750 C 307.052 379.158, 306.537 378, 305.500 378 C 304.284 378, 304 379.611, 304 386.500 M 313 386.500 L 313 395 316 395 C 317.650 395, 319 394.550, 319 394 C 319 393.450, 318.325 393, 317.500 393 C 316.300 393, 316 391.500, 316 385.500 C 316 379.500, 315.700 378, 314.500 378 C 313.284 378, 313 379.611, 313 386.500 M 320 386.500 C 320 394.900, 320.029 395, 322.500 395 C 324.056 395, 325 394.433, 325 393.500 C 325 392.675, 324.325 392, 323.500 392 C 322.675 392, 322 391.148, 322 390.107 C 322 389.066, 322.675 387.955, 323.500 387.638 C 324.325 387.322, 325 386.599, 325 386.031 C 325 385.464, 324.325 385, 323.500 385 C 321.400 385, 321.618 381.332, 323.750 380.779 C 327.344 379.847, 328 380.974, 328 388.083 C 328 393.565, 328.311 395, 329.500 395 C 330.690 395, 331 393.556, 331 388 C 331 384, 331.429 381, 332 381 C 332.550 381, 333 380.325, 333 379.500 C 333 378.321, 331.611 378, 326.500 378 L 320 378 320 386.500 M 334 386.500 L 334 395 337 395 C 340.140 395, 341.078 393.351, 338.500 392.362 C 336.840 391.725, 336.413 388, 338 388 C 338.550 388, 339 387.325, 339 386.500 C 339 385.675, 338.550 385, 338 385 C 336.413 385, 336.840 381.275, 338.500 380.638 C 341.078 379.649, 340.140 378, 337 378 L 334 378 334 386.500 M 341.434 380.405 C 341.039 381.980, 341.631 384.200, 343.149 386.838 C 344.439 389.080, 345.081 391.228, 344.597 391.683 C 344.118 392.132, 343.525 391.938, 343.280 391.250 C 342.510 389.096, 340.845 389.889, 341.180 392.250 C 341.577 395.044, 345.741 395.364, 347.391 392.728 C 348.263 391.333, 348.020 390.118, 346.250 387.030 C 344.058 383.205, 342.933 378.764, 344.974 381.992 C 345.707 383.151, 346.184 383.216, 347.116 382.284 C 348.048 381.352, 348.030 380.741, 347.035 379.542 C 345.081 377.187, 342.128 377.642, 341.434 380.405 M 204 386.500 C 204 389.525, 204.450 392, 205 392 C 205.550 392, 206 389.525, 206 386.500 C 206 383.475, 205.550 381, 205 381 C 204.450 381, 204 383.475, 204 386.500 M 223 383 C 223 384.100, 223.450 385, 224 385 C 224.550 385, 225 384.100, 225 383 C 225 381.900, 224.550 381, 224 381 C 223.450 381, 223 381.900, 223 383 M 240 386.500 C 240 389.991, 240.379 391.884, 241 391.500 C 241.550 391.160, 242 388.910, 242 386.500 C 242 384.090, 241.550 381.840, 241 381.500 C 240.379 381.116, 240 383.009, 240 386.500 M 249.310 386.500 C 249.315 389.800, 249.502 391.029, 249.725 389.232 C 249.947 387.435, 249.943 384.735, 249.715 383.232 C 249.486 381.729, 249.304 383.200, 249.310 386.500 M 271 383 C 271 384.867, 271.267 385.133, 272.200 384.200 C 273.133 383.267, 273.133 382.733, 272.200 381.800 C 271.267 380.867, 271 381.133, 271 383 M 156 408.500 L 156 417 159 417 C 161 417, 162 416.500, 162 415.500 C 162 414.675, 161.325 414, 160.500 414 C 159.667 414, 159 413.111, 159 412 C 159 410.900, 159.450 410, 160 410 C 160.550 410, 161 409.325, 161 408.500 C 161 407.675, 160.550 407, 160 407 C 159.450 407, 159 406.100, 159 405 C 159 403.889, 159.667 403, 160.500 403 C 161.325 403, 162 402.325, 162 401.500 C 162 400.500, 161 400, 159 400 L 156 400 156 408.500 M 164.200 401.200 C 162.960 402.440, 162.535 412.624, 163.607 415.418 C 163.967 416.356, 165.391 417, 167.107 417 C 169.869 417, 170 416.796, 170 412.500 C 170 408.667, 169.704 408, 168 408 C 166.457 408, 166.026 407.372, 166.116 405.250 C 166.187 403.558, 166.408 403.173, 166.689 404.250 C 167.235 406.337, 170 406.614, 170 404.582 C 170 400.388, 166.849 398.551, 164.200 401.200 M 171.627 402.750 C 171.993 404.262, 172.677 406.542, 173.146 407.815 C 173.616 409.088, 174 411.676, 174 413.565 C 174 415.454, 174.450 417, 175 417 C 175.550 417, 176.005 415.538, 176.012 413.750 C 176.018 411.962, 176.653 408.137, 177.421 405.250 C 178.622 400.739, 178.621 400, 177.409 400 C 176.634 400, 176 400.675, 176 401.500 C 176 402.325, 175.550 403, 175 403 C 174.450 403, 174 402.325, 174 401.500 C 174 400.675, 173.316 400, 172.481 400 C 171.329 400, 171.123 400.665, 171.627 402.750 M 180 408.500 C 180 413.500, 180.412 417, 181 417 C 181.550 417, 182 415.455, 182 413.567 C 182 411.013, 182.512 409.972, 184 409.500 C 185.100 409.151, 186.071 408.108, 186.158 407.183 C 186.632 402.148, 185.340 400.047, 181.750 400.015 C 180.219 400.002, 180 401.066, 180 408.500 M 187 401.500 C 187 402.325, 187.450 403, 188 403 C 188.571 403, 189 406, 189 410 C 189 415.556, 189.310 417, 190.500 417 C 191.690 417, 192 415.556, 192 410 C 192 406, 192.429 403, 193 403 C 193.550 403, 194 402.325, 194 401.500 C 194 400.452, 192.944 400, 190.500 400 C 188.056 400, 187 400.452, 187 401.500 M 195 408.500 C 195 415.389, 195.284 417, 196.500 417 C 197.716 417, 198 415.389, 198 408.500 C 198 401.611, 197.716 400, 196.500 400 C 195.284 400, 195 401.611, 195 408.500 M 200.646 403.250 C 199.129 411.805, 198.796 417, 199.764 417 C 200.326 417, 201.045 416.325, 201.362 415.500 C 201.678 414.675, 202.401 414, 202.969 414 C 203.536 414, 204 414.675, 204 415.500 C 204 416.325, 204.724 417, 205.608 417 C 206.772 417, 207.065 416.378, 206.670 414.750 C 206.369 413.512, 205.812 409.688, 205.432 406.250 C 204.876 401.213, 204.400 400, 202.982 400 C 201.782 400, 201.039 401.033, 200.646 403.250 M 208 408.500 C 208 415.389, 208.284 417, 209.500 417 C 210.507 417, 211.030 415.932, 211.090 413.750 L 211.180 410.500 212.119 413.750 C 212.635 415.538, 213.719 417, 214.529 417 C 215.708 417, 216 415.315, 216 408.500 C 216 401.611, 215.716 400, 214.500 400 C 213.456 400, 212.962 401.139, 212.874 403.750 L 212.747 407.500 211.697 403.750 C 211.120 401.688, 210.052 400, 209.324 400 C 208.329 400, 208 402.114, 208 408.500 M 221.068 401.874 C 219.576 404.661, 219.734 413.254, 221.316 415.418 C 223.233 418.039, 226.433 417.064, 226.816 413.741 C 226.990 412.234, 226.653 411, 226.066 411 C 225.480 411, 225 411.675, 225 412.500 C 225 413.325, 224.550 414, 224 414 C 223.450 414, 223 411.525, 223 408.500 C 223 405.475, 223.450 403, 224 403 C 224.550 403, 225 403.675, 225 404.500 C 225 405.325, 225.480 406, 226.066 406 C 226.653 406, 226.990 404.762, 226.816 403.250 C 226.417 399.779, 222.669 398.881, 221.068 401.874 M 229.594 405.250 C 229.229 408.137, 228.671 411.962, 228.354 413.750 C 227.900 416.310, 228.119 417, 229.389 417 C 230.275 417, 231 416.325, 231 415.500 C 231 413.507, 231.990 413.603, 233.558 415.748 C 235.762 418.763, 236.179 416.477, 234.954 408.098 C 233.988 401.491, 233.447 400, 232.014 400 C 230.646 400, 230.111 401.162, 229.594 405.250 M 237 408.500 C 237 415.389, 237.284 417, 238.500 417 C 239.548 417, 240.031 415.871, 240.103 413.250 L 240.207 409.500 241.203 413.250 C 241.754 415.324, 242.825 417, 243.599 417 C 244.690 417, 245 415.121, 245 408.500 C 245 401.611, 244.716 400, 243.500 400 C 242.495 400, 241.966 401.073, 241.898 403.250 L 241.796 406.500 240.753 403.250 C 240.180 401.462, 239.101 400, 238.355 400 C 237.321 400, 237 402.014, 237 408.500 M 247.200 401.200 C 245.352 403.048, 245.646 414.462, 247.584 416.070 C 250.559 418.539, 252.467 415.974, 252.800 409.059 C 253.179 401.186, 250.697 397.703, 247.200 401.200 M 255 408.500 C 255 416.900, 255.029 417, 257.500 417 C 259.056 417, 260 416.433, 260 415.500 C 260 414.675, 259.325 414, 258.500 414 C 257.675 414, 257 413.148, 257 412.107 C 257 411.066, 257.675 409.955, 258.500 409.638 C 259.325 409.322, 260 408.599, 260 408.031 C 260 407.464, 259.325 407, 258.500 407 C 257.667 407, 257 406.111, 257 405 C 257 403.889, 257.667 403, 258.500 403 C 259.325 403, 260 402.325, 260 401.500 C 260 400.567, 259.056 400, 257.500 400 C 255.029 400, 255 400.100, 255 408.500 M 265 408.500 C 265 415.389, 265.284 417, 266.500 417 C 267.548 417, 268.031 415.871, 268.103 413.250 L 268.207 409.500 269.203 413.250 C 270.064 416.493, 270.591 417, 273.099 417 C 275.011 417, 276 416.489, 276 415.500 C 276 414.675, 276.675 414, 277.500 414 C 278.325 414, 279 414.675, 279 415.500 C 279 416.325, 279.450 417, 280 417 C 281.293 417, 281.263 414.176, 279.888 406.280 C 279.015 401.262, 278.429 399.963, 277.150 400.210 C 276.003 400.431, 275.302 402.139, 274.770 406.011 C 273.337 416.446, 272.890 417.129, 271.471 411.054 C 270.651 407.546, 270.519 404.766, 271.099 403.239 C 272.237 400.245, 272.227 400, 270.968 400 C 270.400 400, 269.529 401.012, 269.031 402.250 L 268.127 404.500 268.063 402.250 C 268.027 400.945, 267.370 400, 266.500 400 C 265.284 400, 265 401.611, 265 408.500 M 282.373 402.619 C 282.734 404.204, 283.310 408.087, 283.654 411.250 C 284.509 419.130, 286.554 418.850, 287.307 410.750 C 287.627 407.313, 288.207 403.427, 288.596 402.116 C 289.125 400.333, 288.957 399.848, 287.929 400.190 C 287.173 400.442, 286.274 401.740, 285.930 403.074 L 285.305 405.500 284.903 403.078 C 284.681 401.746, 283.874 400.450, 283.108 400.198 C 282.043 399.847, 281.871 400.414, 282.373 402.619 M 291.646 403.250 C 290.129 411.805, 289.796 417, 290.764 417 C 291.326 417, 292.045 416.325, 292.362 415.500 C 292.678 414.675, 293.401 414, 293.969 414 C 294.536 414, 295 414.675, 295 415.500 C 295 416.325, 295.724 417, 296.608 417 C 297.772 417, 298.065 416.378, 297.670 414.750 C 297.369 413.512, 296.812 409.688, 296.432 406.250 C 295.876 401.213, 295.400 400, 293.982 400 C 292.782 400, 292.039 401.033, 291.646 403.250 M 299 408.500 C 299 415.389, 299.284 417, 300.500 417 C 301.507 417, 302.030 415.932, 302.090 413.750 L 302.180 410.500 303.119 413.750 C 304.549 418.703, 306.424 417.903, 305.462 412.750 C 304.449 407.328, 304.438 403.956, 305.429 401.750 C 305.988 400.503, 305.774 400, 304.680 400 C 303.837 400, 302.941 400.788, 302.689 401.750 C 302.254 403.417, 302.226 403.417, 302.116 401.750 C 302.052 400.788, 301.325 400, 300.500 400 C 299.284 400, 299 401.611, 299 408.500 M 310 401.500 C 310 402.325, 310.675 403, 311.500 403 C 312.690 403, 313 404.444, 313 410 C 313 414, 313.429 417, 314 417 C 314.570 417, 315 414.036, 315 410.107 C 315 404.902, 315.367 403.073, 316.500 402.638 C 317.751 402.158, 318 403.303, 318 409.531 L 318 417 321 417 C 323 417, 324 416.500, 324 415.500 C 324 414.675, 323.325 414, 322.500 414 C 321.667 414, 321 413.111, 321 412 C 321 410.900, 321.450 410, 322 410 C 322.550 410, 323 409.325, 323 408.500 C 323 407.675, 322.550 407, 322 407 C 321.450 407, 321 406.100, 321 405 C 321 403.889, 321.667 403, 322.500 403 C 323.325 403, 324 402.325, 324 401.500 C 324 400.310, 322.556 400, 317 400 C 311.444 400, 310 400.310, 310 401.500 M 326.594 405.250 C 326.229 408.137, 325.671 411.962, 325.354 413.750 C 324.900 416.310, 325.119 417, 326.389 417 C 327.275 417, 328 416.325, 328 415.500 C 328 413.507, 328.990 413.603, 330.558 415.748 C 332.762 418.763, 333.179 416.477, 331.954 408.098 C 330.988 401.491, 330.447 400, 329.014 400 C 327.646 400, 327.111 401.162, 326.594 405.250 M 334 408.427 C 334 415.204, 334.300 417, 335.434 417 C 336.230 417, 337.052 415.777, 337.284 414.250 L 337.700 411.500 337.850 414.250 C 338.071 418.311, 339.818 417.590, 340.272 413.250 L 340.664 409.500 340.832 413.250 C 340.948 415.842, 341.463 417, 342.500 417 C 343.716 417, 344 415.389, 344 408.500 C 344 400.856, 343.811 400, 342.125 400 C 340.832 400, 340.015 401.008, 339.492 403.250 L 338.734 406.500 338.109 403.512 C 337.751 401.797, 336.742 400.381, 335.742 400.189 C 334.195 399.891, 334 400.814, 334 408.427 M 182 405 C 182 406.100, 182.450 407, 183 407 C 183.550 407, 184 406.100, 184 405 C 184 403.900, 183.550 403, 183 403 C 182.450 403, 182 403.900, 182 405 M 249.310 408.500 C 249.315 411.800, 249.502 413.029, 249.725 411.232 C 249.947 409.435, 249.943 406.735, 249.715 405.232 C 249.486 403.729, 249.304 405.200, 249.310 408.500" stroke="none" fill="#d61517" fill-rule="evenodd"/><path d="M 0 250.002 L 0 500.004 250.250 499.752 L 500.500 499.500 500.752 249.750 L 501.004 0 250.502 0 L 0 0 0 250.002 M 0.492 250.500 C 0.492 388, 0.608 444.101, 0.750 375.170 C 0.892 306.238, 0.892 193.738, 0.750 125.170 C 0.608 56.601, 0.492 113, 0.492 250.500 M 151.519 51.598 C 146.489 53.439, 141.295 58.338, 138.900 63.500 C 137.114 67.350, 137.043 74.320, 137.022 248.790 C 137.001 425.374, 137.050 430.176, 138.912 433.790 C 139.964 435.830, 142.327 438.940, 144.162 440.699 C 151.109 447.358, 145.100 447.002, 250.218 446.978 C 340.905 446.957, 345.693 446.867, 349.500 445.100 C 351.700 444.079, 354.940 441.727, 356.699 439.872 C 363.500 432.704, 363.001 447.823, 362.994 249.282 C 362.991 123.889, 362.663 68.326, 361.911 65.619 C 360.478 60.458, 352.774 52.823, 347.384 51.222 C 344.261 50.295, 320.621 50.017, 249.384 50.070 C 169.773 50.130, 154.895 50.362, 151.519 51.598 M 153.071 59.743 C 151.185 60.710, 148.710 62.770, 147.571 64.323 C 145.522 67.116, 145.497 68.001, 145.233 148.573 L 144.966 230 147.800 230 C 150.380 230, 150.793 229.483, 152.397 224.250 C 153.366 221.088, 156.124 214.408, 158.526 209.406 C 160.927 204.405, 163.432 198.105, 164.092 195.406 C 164.752 192.708, 165.918 189.254, 166.682 187.730 C 168.438 184.231, 174.497 179.814, 181.555 176.889 L 187.025 174.621 183.817 171.311 C 182.052 169.490, 179.908 167.997, 179.054 167.993 C 175.285 167.977, 166.623 159.331, 165.369 154.334 C 164.298 150.068, 165.732 147, 168.797 147 C 174.124 147, 178.915 152.309, 182.485 162.166 C 184.255 167.056, 187.986 171.900, 205.494 192.041 C 222.094 211.137, 227.268 216.467, 230.662 217.969 C 235.585 220.146, 244.493 228.120, 246.639 232.268 C 248.926 236.692, 247.633 239, 242.867 239 C 240.668 239, 238.099 238.588, 237.159 238.085 C 235.997 237.463, 232.734 237.956, 226.983 239.622 C 215.013 243.089, 200.465 245.286, 194.500 244.527 C 191.750 244.177, 184.616 242.772, 178.647 241.405 C 164.715 238.214, 154.856 236.993, 148.809 237.709 L 144 238.279 144 242.614 L 144 246.950 147.250 246.225 C 154.845 244.531, 168.359 245.537, 183.437 248.920 C 196.423 251.834, 199.557 252.200, 207.437 251.726 C 216.282 251.194, 226.342 249.062, 240.500 244.721 C 246.615 242.846, 249.965 242.570, 267 242.537 C 289.928 242.493, 294.883 243.343, 320.500 251.706 C 335.086 256.468, 338.906 257.329, 347.403 257.769 L 357.306 258.282 356.653 255.016 C 356.294 253.220, 356 251.326, 356 250.808 C 356 250.289, 354.987 250.180, 353.750 250.566 C 351.570 251.244, 351.555 251.204, 353.271 249.281 C 354.937 247.414, 355.039 242.078, 355.011 158.593 C 354.977 61.171, 355.247 65.452, 348.863 60.899 L 345.500 58.500 251 58.243 C 162.535 58.003, 156.281 58.099, 153.071 59.743 M 313.365 156.559 C 313.844 159.441, 313.630 159.684, 309.683 160.740 C 303.985 162.264, 297.937 166.843, 292.538 173.722 C 287.713 179.869, 282 189.879, 282 192.184 C 282 194.043, 296.520 209, 298.325 209 C 299.098 209, 300.916 209.933, 302.365 211.073 C 304.873 213.045, 305 213.055, 305 211.268 C 305 210.236, 303.650 207.263, 302 204.661 C 298.425 199.023, 298.358 198.414, 301.148 196.921 C 302.776 196.050, 305.980 196.081, 314.398 197.051 C 320.504 197.755, 326.440 198.668, 327.588 199.079 C 329.180 199.650, 331.154 203.762, 335.904 216.403 C 339.329 225.519, 341.900 233.353, 341.617 233.811 C 341.081 234.678, 342.362 245.009, 343.438 248.500 C 343.777 249.600, 343.160 248.588, 342.068 246.250 C 340.487 242.867, 339.557 242, 337.511 242 C 336.097 242, 328.316 239.863, 320.220 237.250 C 308.537 233.480, 304.998 231.909, 303.065 229.635 C 300.761 226.925, 300.589 226.878, 299.892 228.762 C 299.171 230.711, 299 230.718, 291.894 229.105 C 285.254 227.598, 284.561 227.201, 283.795 224.478 C 282.712 220.624, 283.779 212.428, 285.557 210.953 C 288.156 208.796, 292.447 211.764, 294.309 217.007 C 296.171 222.249, 305.585 232, 308.785 232 C 310.875 232, 314 229.065, 314 227.101 C 314 225.379, 308.832 218.099, 305.095 214.558 C 303.387 212.940, 300.080 210.660, 297.745 209.491 C 294.672 207.954, 287.626 200.757, 272.232 183.433 C 260.534 170.270, 250.533 158.488, 250.006 157.250 C 248.577 153.888, 246.370 154.510, 242.912 159.250 C 236.756 167.690, 234.043 174.433, 233.064 183.734 C 232.489 189.199, 230.773 196.412, 228.508 202.888 C 226.510 208.601, 225.241 213.633, 225.688 214.070 C 228.412 216.737, 237.942 220.662, 240.707 220.256 C 244.888 219.643, 248 221.482, 248 224.567 C 248 225.939, 247.354 227.311, 246.565 227.614 C 245.367 228.073, 245.444 228.681, 247.028 231.287 L 248.927 234.410 264.214 234.559 C 282.225 234.736, 292.343 236.580, 313.505 243.543 C 334.858 250.569, 345.926 252.079, 352.250 248.829 C 356.018 246.892, 352.402 235.532, 347.001 232.342 C 344.537 230.886, 342.359 225.969, 329.953 193.842 C 316.404 158.759, 312.136 149.166, 313.365 156.559 M 243.018 167.698 C 240.342 175.038, 239.886 177.504, 240.273 182.545 C 240.788 189.255, 243.052 194.577, 245.739 195.393 C 246.708 195.686, 251.329 196.393, 256.009 196.962 C 262.716 197.777, 265.967 197.693, 271.359 196.565 C 275.121 195.778, 278.383 194.951, 278.606 194.727 C 279.269 194.064, 249.153 159.528, 247.625 159.198 C 246.681 158.995, 245.185 161.755, 243.018 167.698 M 307.517 167.150 C 301.200 173.466, 301 173.823, 301 178.761 C 301 183.428, 301.314 184.115, 304.750 186.962 C 312.600 193.467, 327 198.614, 327 194.916 C 327 193.155, 315.957 162.586, 314.953 161.567 C 314.388 160.993, 311.521 163.146, 307.517 167.150 M 304 176.011 C 304 177.271, 307.644 180, 309.329 180 C 310.248 180, 311 180.675, 311 181.500 C 311 182.325, 310.550 183, 310 183 C 308.152 183, 308.978 184.940, 311.541 186.619 C 314.497 188.556, 318.145 187.466, 319.942 184.109 C 320.796 182.512, 320.562 181.613, 318.753 179.556 C 317.012 177.574, 315.080 176.803, 310.250 176.161 C 306.813 175.705, 304 175.637, 304 176.011 M 182 181.351 C 173.425 188.133, 172.658 189.272, 173.232 194.365 C 173.505 196.792, 174.578 200.463, 175.615 202.523 C 177.374 206.018, 178.355 206.592, 190.336 211.134 L 203.172 216 210.586 213.846 C 214.664 212.661, 218 211.330, 218 210.888 C 218 209.878, 189.041 177, 188.153 177.001 C 187.794 177.001, 185.025 178.959, 182 181.351 M 244.158 180.295 C 244.710 181.326, 246.700 182.812, 248.580 183.598 C 252.363 185.179, 252.905 186.434, 250.250 187.466 C 248.706 188.067, 248.830 188.432, 251.306 190.573 C 254.557 193.385, 256.035 193.551, 259.928 191.537 C 264.689 189.075, 264.773 185.819, 260.184 181.667 C 258.836 180.447, 255.731 179.621, 250.669 179.138 C 243.524 178.455, 243.204 178.512, 244.158 180.295 M 179 192.152 C 179 193.484, 182.142 195.998, 184.570 196.607 C 186.895 197.190, 188.079 200, 186 200 C 183.805 200, 185.183 203.043, 188.050 204.526 C 191.316 206.215, 194.333 205.789, 197.250 203.227 C 199.632 201.135, 199.447 198.632, 196.673 195.407 C 194.643 193.046, 193.370 192.622, 186.673 192.074 C 182.453 191.729, 179 191.764, 179 192.152 M 273.708 200.085 C 268.686 202.677, 266.716 203.103, 258.875 203.287 C 250.037 203.495, 249.766 203.574, 246.916 206.766 C 245.312 208.562, 244 210.417, 244 210.889 C 244 211.360, 246.235 211.960, 248.967 212.223 C 256.192 212.917, 257.363 214.249, 256.661 220.971 L 256.084 226.500 266.422 226.511 L 276.760 226.523 276.285 216.511 C 275.773 205.725, 277.210 198.776, 280.067 198.226 C 281.031 198.040, 283.483 200.442, 286.434 204.462 C 289.074 208.058, 291.433 211, 291.676 211 C 292.346 211, 291.075 209.062, 286.265 202.750 C 283.855 199.588, 281.347 197.022, 280.692 197.048 C 280.036 197.075, 276.894 198.441, 273.708 200.085 M 211.794 219.285 C 204.430 223.083, 203.888 223.209, 199.601 222.130 C 197.133 221.508, 192.104 221, 188.426 221 C 181.861 221, 181.656 221.081, 177.368 225.368 C 170.741 231.996, 170.345 231.593, 186.912 235.072 C 194.517 236.670, 199.100 237.100, 203.912 236.668 C 209.865 236.133, 210.799 235.736, 213.600 232.545 C 215.305 230.603, 218.087 226.428, 219.783 223.267 C 222.828 217.593, 222.880 217.554, 223.868 220.153 C 224.419 221.602, 225.152 224.297, 225.498 226.143 C 226.059 229.142, 225.792 229.697, 222.994 231.347 C 219.045 233.676, 219.541 234.242, 224.363 232.910 C 227.805 231.960, 228.279 232.086, 230.129 234.437 C 231.238 235.847, 232.616 237, 233.191 237 C 233.767 237, 232.823 235.553, 231.093 233.784 C 228.376 231.004, 225 223.077, 225 219.473 C 225 218.056, 221.697 214.940, 220.421 215.155 C 219.915 215.240, 216.032 217.099, 211.794 219.285 M 309.485 270.130 C 297.522 276.526, 291.941 283.190, 283.809 300.792 C 278.562 312.150, 269 340.908, 269 345.332 C 269 350.395, 273.517 354.005, 279.827 353.985 C 289.082 353.956, 292.741 349.817, 295.378 336.394 C 296.334 331.530, 297.242 327.425, 297.396 327.271 C 297.549 327.117, 299.138 327.721, 300.925 328.612 C 305.850 331.069, 314.001 330.081, 319.254 326.389 C 328.652 319.784, 333.805 308.791, 334.717 293.404 C 335.324 283.174, 334.290 278.687, 330.211 273.839 C 325.175 267.854, 316.610 266.322, 309.485 270.130 M 201.500 270.707 C 194.827 272.294, 184.313 276.346, 183.250 277.741 C 182.563 278.644, 182 280.924, 182 282.809 C 182 284.694, 180.141 290.345, 177.869 295.368 C 170.156 312.421, 166.949 323.668, 165.494 338.768 C 164.590 348.150, 165.863 350.376, 173.013 351.909 C 185.124 354.507, 199.023 352.308, 204.588 346.915 C 207.969 343.637, 208.928 340.691, 207 339.500 C 206.450 339.160, 206 337.784, 206 336.441 C 206 333.656, 206.069 333.673, 196 333.903 C 185.656 334.139, 185.154 333.635, 188.441 326.312 L 191.103 320.379 196.967 319.168 C 201.609 318.209, 203.471 317.228, 205.901 314.460 C 208.956 310.980, 210.794 306.461, 209.629 305.296 C 209.293 304.959, 206.050 304.780, 202.424 304.898 C 195.964 305.107, 195.844 305.064, 196.530 302.806 C 197.911 298.253, 201.525 292.780, 203.989 291.507 C 205.370 290.793, 208.525 289.672, 211 289.015 C 217.793 287.213, 223 281.437, 223 275.705 C 223 271.348, 220.182 269.988, 211.421 270.116 C 207.065 270.180, 202.600 270.446, 201.500 270.707 M 251.283 273.216 C 239.921 277.390, 231.156 285.724, 223.991 299.168 C 215.451 315.191, 214.780 336.324, 222.540 344.912 C 230.699 353.944, 249.131 354.240, 260.559 345.523 C 263.906 342.970, 265.025 339.752, 263 338.500 C 262.450 338.160, 262 336.349, 262 334.476 C 262 328.710, 257.857 327.625, 249.334 331.157 C 244.367 333.216, 244.009 333.236, 241.520 331.605 C 240.085 330.665, 238.457 328.702, 237.902 327.243 C 234.325 317.835, 247.658 295.033, 256.750 295.007 C 258.749 295.001, 259 295.499, 259 299.477 C 259 303.108, 259.457 304.253, 261.417 305.538 C 266.680 308.986, 276.600 303.772, 279.082 296.252 C 281.019 290.383, 280.601 282.709, 278.127 278.706 C 273.737 271.603, 262.132 269.229, 251.283 273.216 M 309.856 295.750 C 302.545 312.504, 301.152 316, 301.788 315.996 C 302.180 315.994, 303.993 315.082, 305.818 313.970 C 309.943 311.455, 313.026 304.802, 313.746 296.863 C 314.412 289.523, 312.778 289.055, 309.856 295.750 M 149 386.500 L 149 395 152 395 C 154 395, 155 394.500, 155 393.500 C 155 392.675, 154.325 392, 153.500 392 C 152.667 392, 152 391.111, 152 390 C 152 388.900, 152.450 388, 153 388 C 153.550 388, 154 387.325, 154 386.500 C 154 385.675, 153.550 385, 153 385 C 152.450 385, 152 384.100, 152 383 C 152 381.889, 152.667 381, 153.500 381 C 154.325 381, 155 380.325, 155 379.500 C 155 378.500, 154 378, 152 378 L 149 378 149 386.500 M 157.200 379.200 C 155.960 380.440, 155.535 390.624, 156.607 393.418 C 156.967 394.356, 158.391 395, 160.107 395 C 162.869 395, 163 394.796, 163 390.500 C 163 386.667, 162.704 386, 161 386 C 159.457 386, 159.026 385.372, 159.116 383.250 C 159.187 381.558, 159.408 381.173, 159.689 382.250 C 160.235 384.337, 163 384.614, 163 382.582 C 163 378.388, 159.849 376.551, 157.200 379.200 M 164.439 380.250 C 164.809 381.488, 165.373 385.313, 165.693 388.750 C 166.446 396.850, 168.491 397.130, 169.346 389.250 C 169.690 386.087, 170.255 382.262, 170.602 380.750 C 171.364 377.432, 169.744 377.092, 168.220 380.250 L 167.135 382.500 167.068 380.250 C 167.026 378.872, 166.373 378, 165.383 378 C 164.174 378, 163.936 378.567, 164.439 380.250 M 176.607 379.582 C 176.273 380.452, 176 383.565, 176 386.500 C 176 389.435, 176.273 392.548, 176.607 393.418 C 177.846 396.648, 183 394.538, 183 390.800 C 183 388.487, 180.291 388.446, 179.689 390.750 C 179.438 391.712, 179.232 389.800, 179.232 386.500 C 179.232 383.200, 179.438 381.288, 179.689 382.250 C 180.291 384.554, 183 384.513, 183 382.200 C 183 378.462, 177.846 376.352, 176.607 379.582 M 185.980 378.250 C 185.969 378.387, 185.356 382.212, 184.619 386.750 C 183.488 393.700, 183.492 395, 184.639 395 C 185.387 395, 186 394.325, 186 393.500 C 186 392.675, 186.675 392, 187.500 392 C 188.325 392, 189 392.675, 189 393.500 C 189 394.325, 189.705 395, 190.567 395 C 191.588 395, 191.957 394.389, 191.624 393.250 C 191.344 392.288, 190.825 389.250, 190.473 386.500 C 189.564 379.414, 189.059 378, 187.433 378 C 186.645 378, 185.991 378.113, 185.980 378.250 M 193 386.500 C 193 391.500, 193.412 395, 194 395 C 194.550 395, 195.054 393.087, 195.120 390.750 L 195.240 386.500 196.262 390.750 C 196.842 393.162, 197.872 395, 198.642 395 C 199.679 395, 200 392.994, 200 386.500 C 200 381.500, 199.588 378, 199 378 C 198.450 378, 197.964 379.913, 197.921 382.250 L 197.842 386.500 196.338 382.250 C 195.510 379.913, 194.421 378, 193.917 378 C 193.412 378, 193 381.825, 193 386.500 M 202.419 379.349 C 202.135 380.091, 202.036 383.804, 202.201 387.599 C 202.473 393.886, 202.700 394.528, 204.748 394.819 C 206.410 395.055, 207.258 394.451, 207.998 392.504 C 209.270 389.159, 209.282 383.872, 208.025 380.565 C 206.971 377.794, 203.320 377.002, 202.419 379.349 M 210 386.500 L 210 395 213 395 C 216.140 395, 217.078 393.351, 214.500 392.362 C 212.840 391.725, 212.413 388, 214 388 C 214.550 388, 215 387.325, 215 386.500 C 215 385.675, 214.550 385, 214 385 C 212.413 385, 212.840 381.275, 214.500 380.638 C 217.078 379.649, 216.140 378, 213 378 L 210 378 210 386.500 M 221 386.500 C 221 391.500, 221.412 395, 222 395 C 222.550 395, 223 393.455, 223 391.567 C 223 389.013, 223.512 387.972, 225 387.500 C 226.100 387.151, 227.071 386.108, 227.158 385.183 C 227.632 380.148, 226.340 378.047, 222.750 378.015 C 221.219 378.002, 221 379.066, 221 386.500 M 229.594 383.250 C 229.229 386.137, 228.671 389.962, 228.354 391.750 C 227.900 394.310, 228.119 395, 229.389 395 C 230.275 395, 231 394.325, 231 393.500 C 231 391.507, 231.990 391.603, 233.558 393.748 C 235.762 396.763, 236.179 394.477, 234.954 386.098 C 233.988 379.491, 233.447 378, 232.014 378 C 230.646 378, 230.111 379.162, 229.594 383.250 M 237 386.500 C 237 394.213, 237.178 395, 238.918 395 C 243.474 395, 244 394.121, 244 386.500 C 244 378.879, 243.474 378, 238.918 378 C 237.178 378, 237 378.787, 237 386.500 M 246 386.500 C 246 394.868, 246.038 395, 248.465 395 C 251.610 395, 253 392.394, 253 386.500 C 253 380.606, 251.610 378, 248.465 378 C 246.038 378, 246 378.132, 246 386.500 M 254 386.500 L 254 395 257 395 C 258.650 395, 260 394.550, 260 394 C 260 393.450, 259.325 393, 258.500 393 C 257.300 393, 257 391.500, 257 385.500 C 257 379.500, 256.700 378, 255.500 378 C 254.284 378, 254 379.611, 254 386.500 M 261 386.500 L 261 395 264 395 C 266 395, 267 394.500, 267 393.500 C 267 392.675, 266.325 392, 265.500 392 C 264.667 392, 264 391.111, 264 390 C 264 388.900, 264.450 388, 265 388 C 265.550 388, 266 387.325, 266 386.500 C 266 385.675, 265.550 385, 265 385 C 264.450 385, 264 384.100, 264 383 C 264 381.889, 264.667 381, 265.500 381 C 266.325 381, 267 380.325, 267 379.500 C 267 378.500, 266 378, 264 378 L 261 378 261 386.500 M 268 386.500 C 268 393.389, 268.284 395, 269.500 395 C 270.543 395, 271.040 393.858, 271.132 391.250 L 271.263 387.500 271.882 390.921 C 273.041 397.336, 274.705 395.504, 274.729 387.784 C 274.754 379.794, 273.956 378, 270.378 378 C 268.061 378, 268 378.217, 268 386.500 M 277.004 379.993 C 276.069 381.739, 276.333 382.893, 278.524 386.632 C 279.983 389.121, 280.850 391.459, 280.451 391.829 C 280.052 392.198, 279.525 391.938, 279.280 391.250 C 278.610 389.373, 275.800 389.729, 276.177 391.643 C 276.612 393.854, 279.351 395.463, 281.364 394.691 C 283.647 393.815, 283.423 389.420, 280.886 385.315 C 279.723 383.434, 279.110 381.581, 279.523 381.197 C 279.936 380.814, 280.475 381.063, 280.720 381.750 C 281.490 383.904, 283.155 383.111, 282.820 380.750 C 282.383 377.676, 278.514 377.172, 277.004 379.993 M 289.980 378.250 C 289.969 378.387, 289.356 382.212, 288.619 386.750 C 287.488 393.700, 287.492 395, 288.639 395 C 289.387 395, 290 394.325, 290 393.500 C 290 392.675, 290.675 392, 291.500 392 C 292.325 392, 293 392.675, 293 393.500 C 293 394.325, 293.705 395, 294.567 395 C 295.588 395, 295.957 394.389, 295.624 393.250 C 295.344 392.288, 294.825 389.250, 294.473 386.500 C 293.564 379.414, 293.059 378, 291.433 378 C 290.645 378, 289.991 378.113, 289.980 378.250 M 296 379.500 C 296 380.325, 296.450 381, 297 381 C 297.571 381, 298 384, 298 388 C 298 393.556, 298.310 395, 299.500 395 C 300.690 395, 301 393.556, 301 388 C 301 384, 301.429 381, 302 381 C 302.550 381, 303 380.325, 303 379.500 C 303 378.452, 301.944 378, 299.500 378 C 297.056 378, 296 378.452, 296 379.500 M 304 386.500 C 304 393.230, 304.300 395, 305.440 395 C 306.367 395, 307.019 393.665, 307.272 391.250 L 307.664 387.500 307.832 391.250 C 307.948 393.842, 308.463 395, 309.500 395 C 310.716 395, 311 393.389, 311 386.500 C 311 379.770, 310.700 378, 309.560 378 C 308.633 378, 307.981 379.335, 307.728 381.750 L 307.336 385.500 307.168 381.750 C 307.052 379.158, 306.537 378, 305.500 378 C 304.284 378, 304 379.611, 304 386.500 M 313 386.500 L 313 395 316 395 C 317.650 395, 319 394.550, 319 394 C 319 393.450, 318.325 393, 317.500 393 C 316.300 393, 316 391.500, 316 385.500 C 316 379.500, 315.700 378, 314.500 378 C 313.284 378, 313 379.611, 313 386.500 M 320 386.500 C 320 394.900, 320.029 395, 322.500 395 C 324.056 395, 325 394.433, 325 393.500 C 325 392.675, 324.325 392, 323.500 392 C 322.675 392, 322 391.148, 322 390.107 C 322 389.066, 322.675 387.955, 323.500 387.638 C 324.325 387.322, 325 386.599, 325 386.031 C 325 385.464, 324.325 385, 323.500 385 C 321.400 385, 321.618 381.332, 323.750 380.779 C 327.344 379.847, 328 380.974, 328 388.083 C 328 393.565, 328.311 395, 329.500 395 C 330.690 395, 331 393.556, 331 388 C 331 384, 331.429 381, 332 381 C 332.550 381, 333 380.325, 333 379.500 C 333 378.321, 331.611 378, 326.500 378 L 320 378 320 386.500 M 334 386.500 L 334 395 337 395 C 340.140 395, 341.078 393.351, 338.500 392.362 C 336.840 391.725, 336.413 388, 338 388 C 338.550 388, 339 387.325, 339 386.500 C 339 385.675, 338.550 385, 338 385 C 336.413 385, 336.840 381.275, 338.500 380.638 C 341.078 379.649, 340.140 378, 337 378 L 334 378 334 386.500 M 341.434 380.405 C 341.039 381.980, 341.631 384.200, 343.149 386.838 C 344.439 389.080, 345.081 391.228, 344.597 391.683 C 344.118 392.132, 343.525 391.938, 343.280 391.250 C 342.510 389.096, 340.845 389.889, 341.180 392.250 C 341.577 395.044, 345.741 395.364, 347.391 392.728 C 348.263 391.333, 348.020 390.118, 346.250 387.030 C 344.058 383.205, 342.933 378.764, 344.974 381.992 C 345.707 383.151, 346.184 383.216, 347.116 382.284 C 348.048 381.352, 348.030 380.741, 347.035 379.542 C 345.081 377.187, 342.128 377.642, 341.434 380.405 M 204 386.500 C 204 389.525, 204.450 392, 205 392 C 205.550 392, 206 389.525, 206 386.500 C 206 383.475, 205.550 381, 205 381 C 204.450 381, 204 383.475, 204 386.500 M 223 383 C 223 384.100, 223.450 385, 224 385 C 224.550 385, 225 384.100, 225 383 C 225 381.900, 224.550 381, 224 381 C 223.450 381, 223 381.900, 223 383 M 240 386.500 C 240 389.991, 240.379 391.884, 241 391.500 C 241.550 391.160, 242 388.910, 242 386.500 C 242 384.090, 241.550 381.840, 241 381.500 C 240.379 381.116, 240 383.009, 240 386.500 M 249.310 386.500 C 249.315 389.800, 249.502 391.029, 249.725 389.232 C 249.947 387.435, 249.943 384.735, 249.715 383.232 C 249.486 381.729, 249.304 383.200, 249.310 386.500 M 271 383 C 271 384.867, 271.267 385.133, 272.200 384.200 C 273.133 383.267, 273.133 382.733, 272.200 381.800 C 271.267 380.867, 271 381.133, 271 383 M 156 408.500 L 156 417 159 417 C 161 417, 162 416.500, 162 415.500 C 162 414.675, 161.325 414, 160.500 414 C 159.667 414, 159 413.111, 159 412 C 159 410.900, 159.450 410, 160 410 C 160.550 410, 161 409.325, 161 408.500 C 161 407.675, 160.550 407, 160 407 C 159.450 407, 159 406.100, 159 405 C 159 403.889, 159.667 403, 160.500 403 C 161.325 403, 162 402.325, 162 401.500 C 162 400.500, 161 400, 159 400 L 156 400 156 408.500 M 164.200 401.200 C 162.960 402.440, 162.535 412.624, 163.607 415.418 C 163.967 416.356, 165.391 417, 167.107 417 C 169.869 417, 170 416.796, 170 412.500 C 170 408.667, 169.704 408, 168 408 C 166.457 408, 166.026 407.372, 166.116 405.250 C 166.187 403.558, 166.408 403.173, 166.689 404.250 C 167.235 406.337, 170 406.614, 170 404.582 C 170 400.388, 166.849 398.551, 164.200 401.200 M 171.627 402.750 C 171.993 404.262, 172.677 406.542, 173.146 407.815 C 173.616 409.088, 174 411.676, 174 413.565 C 174 415.454, 174.450 417, 175 417 C 175.550 417, 176.005 415.538, 176.012 413.750 C 176.018 411.962, 176.653 408.137, 177.421 405.250 C 178.622 400.739, 178.621 400, 177.409 400 C 176.634 400, 176 400.675, 176 401.500 C 176 402.325, 175.550 403, 175 403 C 174.450 403, 174 402.325, 174 401.500 C 174 400.675, 173.316 400, 172.481 400 C 171.329 400, 171.123 400.665, 171.627 402.750 M 180 408.500 C 180 413.500, 180.412 417, 181 417 C 181.550 417, 182 415.455, 182 413.567 C 182 411.013, 182.512 409.972, 184 409.500 C 185.100 409.151, 186.071 408.108, 186.158 407.183 C 186.632 402.148, 185.340 400.047, 181.750 400.015 C 180.219 400.002, 180 401.066, 180 408.500 M 187 401.500 C 187 402.325, 187.450 403, 188 403 C 188.571 403, 189 406, 189 410 C 189 415.556, 189.310 417, 190.500 417 C 191.690 417, 192 415.556, 192 410 C 192 406, 192.429 403, 193 403 C 193.550 403, 194 402.325, 194 401.500 C 194 400.452, 192.944 400, 190.500 400 C 188.056 400, 187 400.452, 187 401.500 M 195 408.500 C 195 415.389, 195.284 417, 196.500 417 C 197.716 417, 198 415.389, 198 408.500 C 198 401.611, 197.716 400, 196.500 400 C 195.284 400, 195 401.611, 195 408.500 M 200.646 403.250 C 199.129 411.805, 198.796 417, 199.764 417 C 200.326 417, 201.045 416.325, 201.362 415.500 C 201.678 414.675, 202.401 414, 202.969 414 C 203.536 414, 204 414.675, 204 415.500 C 204 416.325, 204.724 417, 205.608 417 C 206.772 417, 207.065 416.378, 206.670 414.750 C 206.369 413.512, 205.812 409.688, 205.432 406.250 C 204.876 401.213, 204.400 400, 202.982 400 C 201.782 400, 201.039 401.033, 200.646 403.250 M 208 408.500 C 208 415.389, 208.284 417, 209.500 417 C 210.507 417, 211.030 415.932, 211.090 413.750 L 211.180 410.500 212.119 413.750 C 212.635 415.538, 213.719 417, 214.529 417 C 215.708 417, 216 415.315, 216 408.500 C 216 401.611, 215.716 400, 214.500 400 C 213.456 400, 212.962 401.139, 212.874 403.750 L 212.747 407.500 211.697 403.750 C 211.120 401.688, 210.052 400, 209.324 400 C 208.329 400, 208 402.114, 208 408.500 M 221.068 401.874 C 219.576 404.661, 219.734 413.254, 221.316 415.418 C 223.233 418.039, 226.433 417.064, 226.816 413.741 C 226.990 412.234, 226.653 411, 226.066 411 C 225.480 411, 225 411.675, 225 412.500 C 225 413.325, 224.550 414, 224 414 C 223.450 414, 223 411.525, 223 408.500 C 223 405.475, 223.450 403, 224 403 C 224.550 403, 225 403.675, 225 404.500 C 225 405.325, 225.480 406, 226.066 406 C 226.653 406, 226.990 404.762, 226.816 403.250 C 226.417 399.779, 222.669 398.881, 221.068 401.874 M 229.594 405.250 C 229.229 408.137, 228.671 411.962, 228.354 413.750 C 227.900 416.310, 228.119 417, 229.389 417 C 230.275 417, 231 416.325, 231 415.500 C 231 413.507, 231.990 413.603, 233.558 415.748 C 235.762 418.763, 236.179 416.477, 234.954 408.098 C 233.988 401.491, 233.447 400, 232.014 400 C 230.646 400, 230.111 401.162, 229.594 405.250 M 237 408.500 C 237 415.389, 237.284 417, 238.500 417 C 239.548 417, 240.031 415.871, 240.103 413.250 L 240.207 409.500 241.203 413.250 C 241.754 415.324, 242.825 417, 243.599 417 C 244.690 417, 245 415.121, 245 408.500 C 245 401.611, 244.716 400, 243.500 400 C 242.495 400, 241.966 401.073, 241.898 403.250 L 241.796 406.500 240.753 403.250 C 240.180 401.462, 239.101 400, 238.355 400 C 237.321 400, 237 402.014, 237 408.500 M 247.200 401.200 C 245.352 403.048, 245.646 414.462, 247.584 416.070 C 250.559 418.539, 252.467 415.974, 252.800 409.059 C 253.179 401.186, 250.697 397.703, 247.200 401.200 M 255 408.500 C 255 416.900, 255.029 417, 257.500 417 C 259.056 417, 260 416.433, 260 415.500 C 260 414.675, 259.325 414, 258.500 414 C 257.675 414, 257 413.148, 257 412.107 C 257 411.066, 257.675 409.955, 258.500 409.638 C 259.325 409.322, 260 408.599, 260 408.031 C 260 407.464, 259.325 407, 258.500 407 C 257.667 407, 257 406.111, 257 405 C 257 403.889, 257.667 403, 258.500 403 C 259.325 403, 260 402.325, 260 401.500 C 260 400.567, 259.056 400, 257.500 400 C 255.029 400, 255 400.100, 255 408.500 M 265 408.500 C 265 415.389, 265.284 417, 266.500 417 C 267.548 417, 268.031 415.871, 268.103 413.250 L 268.207 409.500 269.203 413.250 C 270.064 416.493, 270.591 417, 273.099 417 C 275.011 417, 276 416.489, 276 415.500 C 276 414.675, 276.675 414, 277.500 414 C 278.325 414, 279 414.675, 279 415.500 C 279 416.325, 279.450 417, 280 417 C 281.293 417, 281.263 414.176, 279.888 406.280 C 279.015 401.262, 278.429 399.963, 277.150 400.210 C 276.003 400.431, 275.302 402.139, 274.770 406.011 C 273.337 416.446, 272.890 417.129, 271.471 411.054 C 270.651 407.546, 270.519 404.766, 271.099 403.239 C 272.237 400.245, 272.227 400, 270.968 400 C 270.400 400, 269.529 401.012, 269.031 402.250 L 268.127 404.500 268.063 402.250 C 268.027 400.945, 267.370 400, 266.500 400 C 265.284 400, 265 401.611, 265 408.500 M 282.373 402.619 C 282.734 404.204, 283.310 408.087, 283.654 411.250 C 284.509 419.130, 286.554 418.850, 287.307 410.750 C 287.627 407.313, 288.207 403.427, 288.596 402.116 C 289.125 400.333, 288.957 399.848, 287.929 400.190 C 287.173 400.442, 286.274 401.740, 285.930 403.074 L 285.305 405.500 284.903 403.078 C 284.681 401.746, 283.874 400.450, 283.108 400.198 C 282.043 399.847, 281.871 400.414, 282.373 402.619 M 291.646 403.250 C 290.129 411.805, 289.796 417, 290.764 417 C 291.326 417, 292.045 416.325, 292.362 415.500 C 292.678 414.675, 293.401 414, 293.969 414 C 294.536 414, 295 414.675, 295 415.500 C 295 416.325, 295.724 417, 296.608 417 C 297.772 417, 298.065 416.378, 297.670 414.750 C 297.369 413.512, 296.812 409.688, 296.432 406.250 C 295.876 401.213, 295.400 400, 293.982 400 C 292.782 400, 292.039 401.033, 291.646 403.250 M 299 408.500 C 299 415.389, 299.284 417, 300.500 417 C 301.507 417, 302.030 415.932, 302.090 413.750 L 302.180 410.500 303.119 413.750 C 304.549 418.703, 306.424 417.903, 305.462 412.750 C 304.449 407.328, 304.438 403.956, 305.429 401.750 C 305.988 400.503, 305.774 400, 304.680 400 C 303.837 400, 302.941 400.788, 302.689 401.750 C 302.254 403.417, 302.226 403.417, 302.116 401.750 C 302.052 400.788, 301.325 400, 300.500 400 C 299.284 400, 299 401.611, 299 408.500 M 310 401.500 C 310 402.325, 310.675 403, 311.500 403 C 312.690 403, 313 404.444, 313 410 C 313 414, 313.429 417, 314 417 C 314.570 417, 315 414.036, 315 410.107 C 315 404.902, 315.367 403.073, 316.500 402.638 C 317.751 402.158, 318 403.303, 318 409.531 L 318 417 321 417 C 323 417, 324 416.500, 324 415.500 C 324 414.675, 323.325 414, 322.500 414 C 321.667 414, 321 413.111, 321 412 C 321 410.900, 321.450 410, 322 410 C 322.550 410, 323 409.325, 323 408.500 C 323 407.675, 322.550 407, 322 407 C 321.450 407, 321 406.100, 321 405 C 321 403.889, 321.667 403, 322.500 403 C 323.325 403, 324 402.325, 324 401.500 C 324 400.310, 322.556 400, 317 400 C 311.444 400, 310 400.310, 310 401.500 M 326.594 405.250 C 326.229 408.137, 325.671 411.962, 325.354 413.750 C 324.900 416.310, 325.119 417, 326.389 417 C 327.275 417, 328 416.325, 328 415.500 C 328 413.507, 328.990 413.603, 330.558 415.748 C 332.762 418.763, 333.179 416.477, 331.954 408.098 C 330.988 401.491, 330.447 400, 329.014 400 C 327.646 400, 327.111 401.162, 326.594 405.250 M 334 408.427 C 334 415.204, 334.300 417, 335.434 417 C 336.230 417, 337.052 415.777, 337.284 414.250 L 337.700 411.500 337.850 414.250 C 338.071 418.311, 339.818 417.590, 340.272 413.250 L 340.664 409.500 340.832 413.250 C 340.948 415.842, 341.463 417, 342.500 417 C 343.716 417, 344 415.389, 344 408.500 C 344 400.856, 343.811 400, 342.125 400 C 340.832 400, 340.015 401.008, 339.492 403.250 L 338.734 406.500 338.109 403.512 C 337.751 401.797, 336.742 400.381, 335.742 400.189 C 334.195 399.891, 334 400.814, 334 408.427 M 182 405 C 182 406.100, 182.450 407, 183 407 C 183.550 407, 184 406.100, 184 405 C 184 403.900, 183.550 403, 183 403 C 182.450 403, 182 403.900, 182 405 M 249.310 408.500 C 249.315 411.800, 249.502 413.029, 249.725 411.232 C 249.947 409.435, 249.943 406.735, 249.715 405.232 C 249.486 403.729, 249.304 405.200, 249.310 408.500" stroke="none" fill="#fbfafa" fill-rule="evenodd"/></svg>